<svg width="174" height="42" viewBox="0 0 174 42" fill="none" xmlns="http://www.w3.org/2000/svg">
<mask id="mask0_4_3043" style="mask-type:alpha" maskUnits="userSpaceOnUse" x="30" y="0" width="22" height="42">
<path d="M30.248 0.897705H51.0133V41.8034H30.248V0.897705Z" fill="white"/>
</mask>
<g mask="url(#mask0_4_3043)">
<path fill-rule="evenodd" clip-rule="evenodd" d="M35.1666 0.897705L42.1268 14.7353C42.688 15.7152 42.7439 16.9476 42.2742 17.9835L30.248 41.8036L50.2588 18.995C51.402 17.5719 51.2247 15.3795 49.8716 14.2019L35.1666 0.897705Z" fill="#ECECEC"/>
</g>
<mask id="mask1_4_3043" style="mask-type:alpha" maskUnits="userSpaceOnUse" x="0" y="0" width="22" height="42">
<path d="M0.00012207 0.897705H21.695V41.8034H0.00012207V0.897705Z" fill="white"/>
</mask>
<g mask="url(#mask1_4_3043)">
<path fill-rule="evenodd" clip-rule="evenodd" d="M16.7765 0.897705L9.8163 14.7353C9.25507 15.7152 9.19921 16.9476 9.66885 17.9835L21.695 41.8036L0.754124 18.995C-0.388474 17.5719 -0.21114 15.3795 1.14127 14.2019L16.7765 0.897705Z" fill="white"/>
</g>
<path fill-rule="evenodd" clip-rule="evenodd" d="M34.4265 15.3754L25.9658 41.8033V0.000610352L34.4265 15.3754Z" fill="white"/>
<path fill-rule="evenodd" clip-rule="evenodd" d="M17.5056 15.3754L25.9656 41.8033V0.000610352L17.5056 15.3754Z" fill="#ECECEC"/>
<path fill-rule="evenodd" clip-rule="evenodd" d="M67.0133 6.50765V9.43829H71.785V11.9933H67.0133V15.1018H72.3839V17.8147H63.5991V3.81409H72.3839V6.50765H67.0133Z" fill="white"/>
<path fill-rule="evenodd" clip-rule="evenodd" d="M81.2889 17.8145L79.0122 14.6661L77.1563 17.8145H73.4025L77.0953 12.0524L73.2628 6.76514H77.0953L79.3519 9.87423L81.209 6.76514H84.9629L81.1889 12.3887L85.1227 17.8145H81.2889Z" fill="white"/>
<path fill-rule="evenodd" clip-rule="evenodd" d="M90.4838 10.3197C90.0239 10.8023 89.7946 11.4587 89.7946 12.2905C89.7946 13.1086 90.0239 13.7625 90.4838 14.2509C90.9431 14.7386 91.5316 14.9834 92.25 14.9834C92.9821 14.9834 93.5713 14.745 94.0175 14.2702C94.4638 13.7954 94.6866 13.135 94.6866 12.2905C94.6866 11.4452 94.4638 10.7849 94.0175 10.3094C93.5713 9.83462 92.9821 9.59689 92.25 9.59689C91.5316 9.59689 90.9431 9.83784 90.4838 10.3197ZM95.8149 7.30985C96.5405 7.76532 97.1127 8.41858 97.5317 9.27026C97.9513 10.1219 98.1605 11.1289 98.1605 12.2905C98.1605 13.4385 97.9513 14.4416 97.5317 15.2997C97.1127 16.1585 96.5405 16.8149 95.8149 17.2704C95.0887 17.7259 94.2669 17.954 93.3485 17.954C92.4962 17.954 91.7648 17.7626 91.1529 17.3793C90.5397 16.996 90.0941 16.4754 89.8148 15.8144V23.0827H86.4006V6.76482H89.8148V8.76518C90.0941 8.10484 90.5397 7.58429 91.1529 7.20033C91.7648 6.81765 92.4962 6.62695 93.3485 6.62695C94.2669 6.62695 95.0887 6.85437 95.8149 7.30985Z" fill="white"/>
<path fill-rule="evenodd" clip-rule="evenodd" d="M106.476 9.84403C106.07 9.48133 105.568 9.29965 104.969 9.29965C104.343 9.29965 103.824 9.48455 103.412 9.85434C102.999 10.2241 102.766 10.7653 102.713 11.4785H107.066C107.079 10.7524 106.882 10.2074 106.476 9.84403ZM110.42 12.9035H102.693C102.732 13.7359 102.945 14.3331 103.332 14.6958C103.717 15.0591 104.21 15.2402 104.809 15.2402C105.315 15.2402 105.734 15.1158 106.067 14.8646C106.4 14.6133 106.619 14.2893 106.726 13.8937H110.34C110.193 14.6732 109.874 15.369 109.381 15.983C108.889 16.5969 108.263 17.0788 107.505 17.428C106.746 17.7785 105.901 17.9537 104.969 17.9537C103.877 17.9537 102.909 17.7256 102.064 17.2702C101.218 16.8147 100.556 16.1582 100.077 15.3001C99.5981 14.442 99.3584 13.4382 99.3584 12.2902C99.3584 11.1286 99.5948 10.1223 100.067 9.27002C100.539 8.41834 101.203 7.76508 102.053 7.3096C102.906 6.85413 103.877 6.62671 104.969 6.62671C106.074 6.62671 107.045 6.8509 107.884 7.29994C108.723 7.74833 109.372 8.37968 109.831 9.19078C110.29 10.0025 110.52 10.9367 110.52 11.9932C110.52 12.2702 110.486 12.5743 110.42 12.9035Z" fill="white"/>
<path fill-rule="evenodd" clip-rule="evenodd" d="M117.358 7.23986C118.03 6.8443 118.759 6.64587 119.544 6.64587V10.2697H118.565C117.66 10.2697 116.959 10.4617 116.459 10.8444C115.96 11.2271 115.71 11.8739 115.71 12.7848V17.8144H112.296V6.76506H115.71V8.84401C116.136 8.17079 116.685 7.63607 117.358 7.23986Z" fill="white"/>
<path fill-rule="evenodd" clip-rule="evenodd" d="M127.29 14.9041V17.8147H125.752C124.449 17.8147 123.433 17.4946 122.708 16.8542C121.983 16.2138 121.62 15.1553 121.62 13.6762V9.61681H120.122V6.76477H121.62V4.05188H125.034V6.76477H127.27V9.61681H125.034V13.7361C125.034 14.1709 125.124 14.475 125.303 14.6464C125.483 14.8177 125.786 14.9041 126.212 14.9041H127.29Z" fill="white"/>
<path fill-rule="evenodd" clip-rule="evenodd" d="M134.268 7.23986C134.941 6.8443 135.67 6.64587 136.455 6.64587V10.2697H135.476C134.571 10.2697 133.87 10.4617 133.37 10.8444C132.871 11.2271 132.622 11.8739 132.622 12.7848V17.8144H129.207V6.76506H132.622V8.84401C133.048 8.17079 133.596 7.63607 134.268 7.23986Z" fill="white"/>
<path fill-rule="evenodd" clip-rule="evenodd" d="M141.456 10.2597C141.01 10.7294 140.787 11.4052 140.787 12.2897C140.787 13.1743 141.01 13.8475 141.456 14.3094C141.902 14.772 142.451 15.0026 143.103 15.0026C143.755 15.0026 144.301 14.772 144.74 14.3094C145.179 13.8475 145.4 13.1743 145.4 12.2897C145.4 11.4052 145.179 10.7294 144.74 10.2597C144.301 9.79136 143.755 9.55686 143.103 9.55686C142.451 9.55686 141.902 9.79136 141.456 10.2597ZM146.069 7.30976C146.94 7.76523 147.626 8.42171 148.125 9.27984C148.624 10.1386 148.873 11.141 148.873 12.2897C148.873 13.4384 148.624 14.4415 148.125 15.2996C147.626 16.1577 146.94 16.8149 146.069 17.2703C145.196 17.7258 144.208 17.9532 143.103 17.9532C141.998 17.9532 141.006 17.7258 140.128 17.2703C139.25 16.8149 138.561 16.1577 138.062 15.2996C137.562 14.4415 137.313 13.4384 137.313 12.2897C137.313 11.141 137.562 10.1386 138.062 9.27984C138.561 8.42171 139.25 7.76523 140.128 7.30976C141.006 6.85428 141.998 6.62622 143.103 6.62622C144.208 6.62622 145.196 6.85428 146.069 7.30976Z" fill="white"/>
<path fill-rule="evenodd" clip-rule="evenodd" d="M160.763 7.91373C161.515 8.75898 161.891 9.92054 161.891 11.3991V17.8144H158.477V11.7946C158.477 11.0557 158.281 10.4778 157.888 10.0623C157.495 9.64609 156.973 9.438 156.321 9.438C155.628 9.438 155.079 9.6564 154.673 10.0919C154.267 10.5281 154.064 11.1485 154.064 11.9538V17.8144H150.65V6.76506H154.064V8.78539C154.384 8.1244 154.859 7.60386 155.492 7.22053C156.124 6.83721 156.866 6.64587 157.718 6.64587C158.995 6.64587 160.01 7.06849 160.763 7.91373Z" fill="white"/>
<path fill-rule="evenodd" clip-rule="evenodd" d="M171.585 7.67593C172.43 8.37557 172.959 9.30005 173.171 10.4487H169.978C169.885 9.99905 169.674 9.64665 169.348 9.38831C169.022 9.13191 168.613 9.00306 168.12 9.00306C167.734 9.00306 167.442 9.08552 167.242 9.25045C167.042 9.41537 166.943 9.64923 166.943 9.95331C166.943 10.2967 167.126 10.5544 167.492 10.7251C167.857 10.8971 168.433 11.0691 169.219 11.2399C170.07 11.4389 170.769 11.6399 171.316 11.8448C171.861 12.049 172.333 12.3827 172.733 12.844C173.133 13.3066 173.331 13.927 173.331 14.7052C173.331 15.3398 173.158 15.9009 172.813 16.3886C172.467 16.8776 171.968 17.2603 171.316 17.5379C170.663 17.8143 169.891 17.9535 168.999 17.9535C167.495 17.9535 166.291 17.623 165.386 16.9633C164.48 16.3036 163.927 15.3598 163.728 14.1318H167.023C167.075 14.6073 167.279 14.9693 167.632 15.2206C167.984 15.4719 168.44 15.5968 168.999 15.5968C169.385 15.5968 169.677 15.5079 169.878 15.3295C170.078 15.1517 170.177 14.9172 170.177 14.6266C170.177 14.2439 169.994 13.9701 169.628 13.8046C169.262 13.6396 168.666 13.4651 167.84 13.2802C167.016 13.1088 166.337 12.9239 165.805 12.7255C165.272 12.527 164.813 12.2075 164.426 11.7656C164.041 11.323 163.848 10.7193 163.848 9.95331C163.848 8.96312 164.228 8.16104 164.986 7.54708C165.745 6.93377 166.815 6.62646 168.2 6.62646C169.611 6.62646 170.739 6.97629 171.585 7.67593Z" fill="white"/>
<mask id="mask2_4_3043" style="mask-type:alpha" maskUnits="userSpaceOnUse" x="0" y="0" width="174" height="42">
<path d="M0 41.8033H173.332V0H0V41.8033Z" fill="white"/>
</mask>
<g mask="url(#mask2_4_3043)">
<path fill-rule="evenodd" clip-rule="evenodd" d="M64.0309 36.9889H65.3476V26.8699H64.0309V36.9889Z" fill="white"/>
<path fill-rule="evenodd" clip-rule="evenodd" d="M73.8874 29.8625C74.4558 30.4507 74.7409 31.2998 74.7409 32.4104V36.989H73.4243V32.5251C73.4243 31.7404 73.2209 31.1374 72.8156 30.7161C72.4109 30.2954 71.8614 30.0854 71.1663 30.0854C70.4427 30.0854 69.8639 30.3173 69.4294 30.7811C68.9955 31.245 68.7779 31.9215 68.7779 32.8118V36.989H67.4612V29.1087H68.7779V30.9751C68.9805 30.3334 69.3404 29.8406 69.8562 29.4965C70.3719 29.1519 70.9676 28.9799 71.6431 28.9799C72.5694 28.9799 73.3177 29.2743 73.8874 29.8625Z" fill="white"/>
<path fill-rule="evenodd" clip-rule="evenodd" d="M81.4191 29.7045C81.9634 30.169 82.2947 30.7926 82.411 31.5773H81.1508C81.093 31.1089 80.8981 30.723 80.5655 30.4215C80.2323 30.1207 79.7867 29.9699 79.2268 29.9699C78.7532 29.9699 78.3849 30.0826 78.1192 30.3075C77.8549 30.5317 77.7217 30.8364 77.7217 31.2191C77.7217 31.5058 77.8107 31.7377 77.9887 31.9149C78.168 32.0914 78.3895 32.226 78.6551 32.3169C78.9202 32.4077 79.2846 32.5056 79.7477 32.6113C80.3362 32.7453 80.8117 32.8819 81.1729 33.0197C81.5353 33.1589 81.8432 33.3811 82.0992 33.6878C82.3544 33.9938 82.4831 34.4048 82.4831 34.9222C82.4831 35.5632 82.2395 36.0844 81.7523 36.4857C81.2645 36.8877 80.6162 37.0894 79.8062 37.0894C78.8597 37.0894 78.0881 36.8645 77.4898 36.4142C76.8915 35.9645 76.5395 35.3377 76.4336 34.5343H77.7074C77.7555 35.013 77.9653 35.4008 78.3368 35.6972C78.7084 35.9935 79.1975 36.1417 79.8062 36.1417C80.2589 36.1417 80.6136 36.0264 80.8695 35.797C81.1248 35.5677 81.2528 35.2662 81.2528 34.8932C81.2528 34.5872 81.1612 34.343 80.978 34.1613C80.7942 33.9796 80.5681 33.8405 80.2972 33.7445C80.0277 33.6491 79.6561 33.5486 79.1832 33.4436C78.5947 33.3096 78.1244 33.1756 77.7724 33.0416C77.4203 32.9076 77.1208 32.695 76.8747 32.4025C76.6291 32.1107 76.5057 31.7164 76.5057 31.2191C76.5057 30.5581 76.7519 30.0253 77.2443 29.6181C77.736 29.2116 78.4063 29.0081 79.2553 29.0081C80.153 29.0081 80.8741 29.24 81.4191 29.7045Z" fill="white"/>
<path fill-rule="evenodd" clip-rule="evenodd" d="M86.8677 30.5223C86.4533 30.7568 86.1298 31.0944 85.8979 31.5337C85.6667 31.9744 85.5511 32.4814 85.5511 33.0561C85.5511 33.6295 85.6667 34.1345 85.8979 34.57C86.1298 35.0055 86.4533 35.3425 86.8677 35.5821C87.2828 35.8218 87.746 35.941 88.2578 35.941C89.0769 35.941 89.731 35.6852 90.2182 35.173C90.7054 34.6615 90.9496 33.9554 90.9496 33.0561C90.9496 32.1561 90.7054 31.4506 90.2182 30.9385C89.731 30.4269 89.0769 30.1705 88.2578 30.1705C87.746 30.1705 87.2828 30.2884 86.8677 30.5223ZM90.5151 29.496C91.0653 29.8214 91.4966 30.291 91.8103 30.903C92.1241 31.5151 92.2806 32.2327 92.2806 33.0561C92.2806 33.8788 92.1241 34.5939 91.8103 35.202C91.4966 35.8089 91.0653 36.276 90.5151 36.6013C89.9655 36.926 89.3374 37.089 88.6333 37.089C87.8622 37.089 87.2081 36.8957 86.6729 36.5079C86.1376 36.1201 85.768 35.6098 85.5653 34.9791V40.7199H84.2487V29.1088H85.5653V31.1182C85.768 30.4862 86.1376 29.9766 86.6729 29.5894C87.2081 29.2016 87.8622 29.0077 88.6333 29.0077C89.3374 29.0077 89.9655 29.1707 90.5151 29.496Z" fill="white"/>
<path fill-rule="evenodd" clip-rule="evenodd" d="M94.0021 36.9889H95.3188V29.1092H94.0021V36.9889ZM94.0164 26.2166C94.1807 26.0684 94.3983 25.9937 94.6679 25.9937C94.9388 25.9937 95.1551 26.0684 95.3188 26.2166C95.4831 26.3654 95.565 26.5586 95.565 26.7977C95.565 27.0373 95.4831 27.2306 95.3188 27.3794C95.1551 27.5276 94.9388 27.6017 94.6679 27.6017C94.3983 27.6017 94.1807 27.5276 94.0164 27.3794C93.8527 27.2306 93.7715 27.0373 93.7715 26.7977C93.7715 26.5586 93.8527 26.3654 94.0164 26.2166Z" fill="white"/>
<path fill-rule="evenodd" clip-rule="evenodd" d="M99.8932 29.4321C100.395 29.13 100.993 28.9799 101.687 28.9799V30.4004H101.282C100.54 30.4004 99.9322 30.5898 99.4586 30.9673C98.9864 31.3455 98.7493 31.9698 98.7493 32.8408V36.9884H97.4326V29.1087H98.7493V30.7026C99.0098 30.1562 99.3917 29.7336 99.8932 29.4321Z" fill="white"/>
<path fill-rule="evenodd" clip-rule="evenodd" d="M108.677 31.2329C108.455 30.8412 108.151 30.5487 107.766 30.358C107.38 30.1666 106.96 30.07 106.507 30.07C105.783 30.07 105.175 30.2929 104.683 30.7374C104.192 31.1833 103.926 31.8365 103.887 32.6966H108.967C108.996 32.1135 108.899 31.6252 108.677 31.2329ZM110.24 33.3286H103.887C103.916 34.2279 104.173 34.9024 104.661 35.3528C105.148 35.8024 105.744 36.0266 106.448 36.0266C107.085 36.0266 107.618 35.8669 108.047 35.546C108.477 35.2252 108.74 34.7974 108.837 34.2614H110.24C110.144 34.8071 109.929 35.2954 109.597 35.7258C109.263 36.1561 108.832 36.4911 108.301 36.7301C107.77 36.9692 107.172 37.0896 106.507 37.0896C105.744 37.0896 105.069 36.9266 104.481 36.6013C103.892 36.276 103.431 35.8095 103.098 35.202C102.765 34.5945 102.599 33.8787 102.599 33.0561C102.599 32.2334 102.765 31.515 103.098 30.903C103.431 30.291 103.892 29.822 104.481 29.4966C105.069 29.1713 105.744 29.0083 106.507 29.0083C107.278 29.0083 107.951 29.1713 108.526 29.4966C109.098 29.822 109.538 30.2568 109.842 30.8025C110.146 31.3482 110.298 31.9505 110.298 32.6115C110.298 32.8886 110.279 33.1276 110.24 33.3286Z" fill="white"/>
<path fill-rule="evenodd" clip-rule="evenodd" d="M121.702 35.6972C121.47 36.1089 121.118 36.4432 120.646 36.7022C120.173 36.9599 119.589 37.0894 118.895 37.0894C118.219 37.0894 117.618 36.967 117.093 36.7235C116.567 36.4793 116.147 36.1443 115.833 35.7185C115.52 35.2926 115.339 34.8069 115.291 34.2612H116.695C116.723 34.5492 116.822 34.8281 116.992 35.1013C117.161 35.3738 117.402 35.5993 117.715 35.7758C118.028 35.953 118.407 36.0412 118.851 36.0412C119.43 36.0412 119.874 35.8885 120.182 35.5819C120.492 35.2765 120.646 34.8835 120.646 34.4049C120.646 33.9938 120.537 33.6588 120.32 33.4005C120.103 33.1421 119.835 32.9392 119.517 32.7904C119.198 32.6422 118.764 32.4818 118.214 32.3092C117.568 32.0991 117.049 31.9001 116.658 31.7139C116.268 31.527 115.935 31.2481 115.66 30.8744C115.385 30.5014 115.248 30.0086 115.248 29.3959C115.248 28.8696 115.376 28.4057 115.631 28.0037C115.886 27.6023 116.254 27.2905 116.731 27.0709C117.209 26.8512 117.771 26.7404 118.416 26.7404C119.42 26.7404 120.217 26.9826 120.805 27.4658C121.393 27.9489 121.736 28.5635 121.832 29.3102H120.414C120.336 28.9076 120.129 28.5539 119.791 28.2479C119.454 27.9412 118.996 27.7885 118.416 27.7885C117.886 27.7885 117.462 27.9251 117.144 28.197C116.825 28.4701 116.666 28.8554 116.666 29.3527C116.666 29.7457 116.77 30.0633 116.977 30.3075C117.185 30.5517 117.442 30.743 117.751 30.8809C118.06 31.02 118.484 31.1753 119.025 31.3479C119.68 31.5586 120.209 31.7596 120.61 31.951C121.01 32.1423 121.35 32.4316 121.63 32.8187C121.91 33.2066 122.049 33.7213 122.049 34.3623C122.049 34.8404 121.933 35.2855 121.702 35.6972Z" fill="white"/>
<path fill-rule="evenodd" clip-rule="evenodd" d="M130.877 29.1088V36.9884H129.56V35.1369C129.358 35.7786 128.998 36.2682 128.482 36.6083C127.966 36.9485 127.365 37.1179 126.681 37.1179C125.763 37.1179 125.02 36.8242 124.452 36.2353C123.882 35.6465 123.598 34.8019 123.598 33.7015V29.1088H124.915V33.5727C124.915 34.3574 125.117 34.9623 125.522 35.3882C125.928 35.814 126.478 36.0266 127.173 36.0266C127.897 36.0266 128.475 35.7953 128.909 35.3308C129.343 34.867 129.56 34.1899 129.56 33.3002V29.1088H130.877Z" fill="white"/>
<path fill-rule="evenodd" clip-rule="evenodd" d="M139.025 29.8121C139.691 30.3481 140.101 31.0658 140.254 31.9651H138.865C138.768 31.4008 138.506 30.9575 138.077 30.6373C137.648 30.3171 137.114 30.1561 136.478 30.1561C136.015 30.1561 135.592 30.2617 135.211 30.4724C134.83 30.6831 134.524 31.0058 134.292 31.4413C134.061 31.8768 133.945 32.4148 133.945 33.0558C133.945 33.6968 134.061 34.2354 134.292 34.6703C134.524 35.1064 134.83 35.4292 135.211 35.6392C135.592 35.8499 136.015 35.9549 136.478 35.9549C137.114 35.9549 137.648 35.7925 138.077 35.4672C138.506 35.1418 138.768 34.6973 138.865 34.1323H140.254C140.101 35.0413 139.691 35.761 139.025 36.2925C138.358 36.8239 137.52 37.0894 136.506 37.0894C135.745 37.0894 135.069 36.9264 134.48 36.601C133.893 36.2757 133.431 35.8093 133.098 35.2018C132.766 34.5942 132.599 33.8785 132.599 33.0558C132.599 32.2331 132.766 31.5154 133.098 30.9028C133.431 30.2907 133.893 29.8217 134.48 29.4964C135.069 29.171 135.745 29.0081 136.506 29.0081C137.52 29.0081 138.358 29.2767 139.025 29.8121Z" fill="white"/>
<path fill-rule="evenodd" clip-rule="evenodd" d="M148.011 29.8121C148.677 30.3481 149.087 31.0658 149.241 31.9651H147.851C147.755 31.4008 147.492 30.9575 147.063 30.6373C146.634 30.3171 146.101 30.1561 145.464 30.1561C145.001 30.1561 144.578 30.2617 144.198 30.4724C143.816 30.6831 143.51 31.0058 143.278 31.4413C143.047 31.8768 142.932 32.4148 142.932 33.0558C142.932 33.6968 143.047 34.2354 143.278 34.6703C143.51 35.1064 143.816 35.4292 144.198 35.6392C144.578 35.8499 145.001 35.9549 145.464 35.9549C146.101 35.9549 146.634 35.7925 147.063 35.4672C147.492 35.1418 147.755 34.6973 147.851 34.1323H149.241C149.087 35.0413 148.677 35.761 148.011 36.2925C147.345 36.8239 146.506 37.0894 145.493 37.0894C144.731 37.0894 144.055 36.9264 143.467 36.601C142.879 36.2757 142.417 35.8093 142.084 35.2018C141.752 34.5942 141.585 33.8785 141.585 33.0558C141.585 32.2331 141.752 31.5154 142.084 30.9028C142.417 30.2907 142.879 29.8217 143.467 29.4964C144.055 29.171 144.731 29.0081 145.493 29.0081C146.506 29.0081 147.345 29.2767 148.011 29.8121Z" fill="white"/>
<path fill-rule="evenodd" clip-rule="evenodd" d="M156.65 31.2329C156.428 30.8412 156.124 30.5487 155.738 30.358C155.352 30.1666 154.933 30.07 154.479 30.07C153.756 30.07 153.148 30.2929 152.656 30.7374C152.164 31.1833 151.899 31.8365 151.86 32.6966H156.94C156.968 32.1135 156.872 31.6252 156.65 31.2329ZM158.213 33.3286H151.86C151.889 34.2279 152.147 34.9024 152.634 35.3528C153.122 35.8024 153.717 36.0266 154.421 36.0266C155.059 36.0266 155.591 35.8669 156.021 35.546C156.45 35.2252 156.713 34.7974 156.81 34.2614H158.213C158.116 34.8071 157.902 35.2954 157.569 35.7258C157.237 36.1561 156.805 36.4911 156.274 36.7301C155.743 36.9692 155.145 37.0896 154.479 37.0896C153.717 37.0896 153.042 36.9266 152.453 36.6013C151.865 36.276 151.403 35.8095 151.071 35.202C150.738 34.5945 150.572 33.8787 150.572 33.0561C150.572 32.2334 150.738 31.515 151.071 30.903C151.403 30.291 151.865 29.822 152.453 29.4966C153.042 29.1713 153.717 29.0083 154.479 29.0083C155.251 29.0083 155.924 29.1713 156.499 29.4966C157.072 29.822 157.511 30.2568 157.815 30.8025C158.119 31.3482 158.271 31.9505 158.271 32.6115C158.271 32.8886 158.252 33.1276 158.213 33.3286Z" fill="white"/>
<path fill-rule="evenodd" clip-rule="evenodd" d="M164.646 29.7045C165.19 30.169 165.521 30.7926 165.637 31.5773H164.377C164.32 31.1089 164.125 30.723 163.792 30.4215C163.459 30.1207 163.013 29.9699 162.453 29.9699C161.98 29.9699 161.612 30.0826 161.346 30.3075C161.081 30.5317 160.948 30.8364 160.948 31.2191C160.948 31.5058 161.037 31.7377 161.215 31.9149C161.395 32.0914 161.616 32.226 161.882 32.3169C162.147 32.4077 162.511 32.5056 162.974 32.6113C163.563 32.7453 164.038 32.8819 164.4 33.0197C164.762 33.1589 165.07 33.3811 165.326 33.6878C165.581 33.9938 165.71 34.4048 165.71 34.9222C165.71 35.5632 165.466 36.0844 164.978 36.4857C164.491 36.8877 163.842 37.0894 163.032 37.0894C162.086 37.0894 161.315 36.8645 160.716 36.4142C160.118 35.9645 159.766 35.3377 159.66 34.5343H160.934C160.982 35.013 161.192 35.4008 161.564 35.6972C161.935 35.9935 162.424 36.1417 163.032 36.1417C163.485 36.1417 163.84 36.0264 164.096 35.797C164.351 35.5677 164.479 35.2662 164.479 34.8932C164.479 34.5872 164.388 34.343 164.205 34.1613C164.021 33.9796 163.794 33.8405 163.524 33.7445C163.254 33.6491 162.883 33.5486 162.41 33.4436C161.821 33.3096 161.351 33.1756 160.999 33.0416C160.646 32.9076 160.348 32.695 160.101 32.4025C159.856 32.1107 159.732 31.7164 159.732 31.2191C159.732 30.5581 159.979 30.0253 160.471 29.6181C160.963 29.2116 161.633 29.0081 162.482 29.0081C163.379 29.0081 164.101 29.24 164.646 29.7045Z" fill="white"/>
<path fill-rule="evenodd" clip-rule="evenodd" d="M172.128 29.7045C172.673 30.169 173.004 30.7926 173.119 31.5773H171.86C171.802 31.1089 171.607 30.723 171.275 30.4215C170.941 30.1207 170.495 29.9699 169.936 29.9699C169.462 29.9699 169.094 30.0826 168.828 30.3075C168.563 30.5317 168.431 30.8364 168.431 31.2191C168.431 31.5058 168.52 31.7377 168.698 31.9149C168.877 32.0914 169.099 32.226 169.364 32.3169C169.629 32.4077 169.994 32.5056 170.457 32.6113C171.045 32.7453 171.52 32.8819 171.882 33.0197C172.244 33.1589 172.552 33.3811 172.808 33.6878C173.064 33.9938 173.192 34.4048 173.192 34.9222C173.192 35.5632 172.949 36.0844 172.461 36.4857C171.974 36.8877 171.325 37.0894 170.515 37.0894C169.569 37.0894 168.797 36.8645 168.199 36.4142C167.601 35.9645 167.248 35.3377 167.143 34.5343H168.417C168.464 35.013 168.674 35.4008 169.046 35.6972C169.418 35.9935 169.907 36.1417 170.515 36.1417C170.967 36.1417 171.322 36.0264 171.579 35.797C171.834 35.5677 171.962 35.2662 171.962 34.8932C171.962 34.5872 171.87 34.343 171.687 34.1613C171.503 33.9796 171.277 33.8405 171.006 33.7445C170.736 33.6491 170.365 33.5486 169.892 33.4436C169.304 33.3096 168.833 33.1756 168.481 33.0416C168.129 32.9076 167.83 32.695 167.584 32.4025C167.338 32.1107 167.215 31.7164 167.215 31.2191C167.215 30.5581 167.461 30.0253 167.953 29.6181C168.445 29.2116 169.115 29.0081 169.964 29.0081C170.862 29.0081 171.583 29.24 172.128 29.7045Z" fill="white"/>
</g>
</svg>
