<svg width="120" height="28" viewBox="0 0 120 28" fill="none" xmlns="http://www.w3.org/2000/svg">
<g clip-path="url(#clip0_4_3082)">
<path d="M9.21138 12.6999C9.21138 11.8122 8.94104 10.9444 8.43457 10.2064C7.9281 9.46832 7.20825 8.89316 6.36607 8.55362C5.5239 8.21409 4.59725 8.12545 3.70335 8.29891C2.80944 8.47237 1.98844 8.90014 1.3442 9.52811C0.699961 10.1561 0.261434 10.956 0.0840907 11.8268C-0.0932527 12.6975 -0.00144392 13.5999 0.347903 14.4198C0.69725 15.2397 1.28844 15.9403 2.04668 16.4329C2.80493 16.9255 3.69616 17.1881 4.60764 17.1873C5.21254 17.1873 5.81152 17.0712 6.37032 16.8457C6.92913 16.6201 7.43682 16.2895 7.86437 15.8727C8.29191 15.456 8.63094 14.9613 8.86207 14.4168C9.0932 13.8724 9.21189 13.289 9.21138 12.6999" fill="white"/>
<path d="M119.563 12.6999C119.563 11.8123 119.293 10.9447 118.787 10.2068C118.281 9.4688 117.561 8.89364 116.719 8.55399C115.877 8.21435 114.951 8.12548 114.057 8.29863C113.163 8.47178 112.342 8.89917 111.698 9.52675C111.053 10.1543 110.614 10.9539 110.437 11.8244C110.259 12.6949 110.35 13.5972 110.699 14.4171C111.048 15.2371 111.638 15.938 112.396 16.431C113.154 16.9241 114.044 17.1873 114.956 17.1873C116.178 17.1873 117.35 16.7145 118.214 15.873C119.078 15.0314 119.563 13.89 119.563 12.6999Z" fill="white"/>
<path d="M70.6812 16.7276C70.1388 16.7385 69.5999 16.6411 69.0977 16.4415C68.5954 16.2419 68.1404 15.9443 67.7608 15.567C67.3811 15.1897 67.0847 14.7407 66.89 14.2476C66.6952 13.7545 66.6062 13.2278 66.6283 12.7C66.62 11.8433 66.8968 11.007 67.4172 10.3162C67.9377 9.62547 68.6737 9.11742 69.5154 8.86807C70.357 8.61871 71.2589 8.64148 72.0861 8.93294C72.9134 9.22441 73.6214 9.76892 74.1044 10.485L77.8504 7.86379C76.9965 6.66045 75.8382 5.69208 74.4875 5.05237C73.1368 4.41265 71.6395 4.12324 70.1403 4.21212C68.6412 4.301 67.191 4.76517 65.9299 5.55973C64.6689 6.35429 63.6398 7.45235 62.9421 8.74768C62.2444 10.043 61.9017 11.4918 61.9473 12.9539C61.9928 14.4159 62.425 15.8418 63.202 17.0936C63.9791 18.3453 65.0746 19.3806 66.3828 20.0993C67.691 20.8179 69.1674 21.1956 70.6693 21.1959C73.53 21.1959 76.0876 19.9542 78.0393 17.3445L74.254 14.7923C73.8699 15.3793 73.3401 15.8625 72.7136 16.1974C72.0871 16.5323 71.384 16.708 70.6693 16.7084" fill="white"/>
<path d="M55.2291 6.06643C54.5818 5.45416 53.8162 4.97295 52.9767 4.65064C52.1372 4.32834 51.2404 4.17132 50.3382 4.18867C46.1948 4.18867 42.3544 7.59163 42.3544 12.6922C42.3544 17.7928 46.1594 21.1958 50.3382 21.1958C51.2143 21.2075 52.0839 21.0472 52.8951 20.7246C53.7064 20.402 54.4426 19.9236 55.0599 19.318V20.7168H59.7306V4.67919H55.2291V6.06643ZM51.0858 16.7275C50.5434 16.7384 50.0046 16.641 49.5023 16.4415C49.0001 16.2419 48.5451 15.9442 48.1654 15.5669C47.7857 15.1896 47.4894 14.7406 47.2946 14.2475C47.0998 13.7544 47.0108 13.2278 47.0329 12.6999C47.0329 11.6531 47.4599 10.6491 48.22 9.90886C48.98 9.16863 50.0109 8.75277 51.0858 8.75277C52.1607 8.75277 53.1915 9.16863 53.9516 9.90886C54.7117 10.6491 55.1386 11.6531 55.1386 12.6999C55.1596 13.2275 55.0698 13.7537 54.8746 14.2462C54.6794 14.7388 54.383 15.1874 54.0036 15.5645C53.6241 15.9415 53.1696 16.2392 52.6679 16.4392C52.1662 16.6392 51.6278 16.7373 51.0858 16.7275" fill="white"/>
<path d="M35.5944 6.54549V4.67923H31.0851V20.7168H35.7596V13.11C35.7596 9.91395 37.5815 9.04788 39.604 9.04788C40.1333 9.04137 40.6615 9.09539 41.1779 9.20884V4.67923C40.7452 4.56837 40.2992 4.51424 39.8519 4.51828C38.5258 4.51828 36.6214 4.93981 35.5786 6.54549" fill="white"/>
<path d="M84.3626 0.00012207H79.688V15.6392C79.688 18.8352 81.6869 20.8394 85.6532 20.8394C87.0217 20.8414 88.3854 20.6806 89.7139 20.3604V16.283C88.6741 16.5822 87.5952 16.7332 86.511 16.7313C85.2046 16.7313 84.3626 16.3749 84.3626 15.0528V8.67613H89.7926V4.65619H84.3626V0.00012207Z" fill="white"/>
<path d="M99.6847 4.1886C97.9576 4.18784 96.2691 4.68592 94.8327 5.61984C93.3964 6.55377 92.2766 7.88157 91.6152 9.43533C90.9537 10.9891 90.7802 12.699 91.1167 14.3488C91.4532 15.9985 92.2844 17.5141 93.5054 18.7037C94.7263 19.8933 96.2821 20.7036 97.9759 21.032C99.6697 21.3605 101.426 21.1923 103.021 20.5488C104.617 19.9053 105.981 18.8154 106.94 17.4169C107.9 16.0184 108.412 14.3742 108.412 12.6922C108.412 10.4375 107.493 8.2752 105.856 6.68059C104.22 5.08597 102 4.18962 99.6847 4.1886V4.1886ZM99.6847 16.7274C99.1412 16.7399 98.6009 16.6437 98.097 16.4449C97.5932 16.246 97.1365 15.9487 96.7553 15.5713C96.374 15.1939 96.0762 14.7444 95.8803 14.2505C95.6843 13.7566 95.5944 13.2289 95.6161 12.6998C95.6161 11.653 96.0431 10.649 96.8032 9.90878C97.5632 9.16855 98.5941 8.7527 99.669 8.7527C100.744 8.7527 101.775 9.16855 102.535 9.90878C103.295 10.649 103.722 11.653 103.722 12.6998C103.743 13.2272 103.654 13.7533 103.459 14.2459C103.265 14.7384 102.969 15.1871 102.589 15.5642C102.21 15.9413 101.756 16.2391 101.254 16.4391C100.753 16.6391 100.215 16.7372 99.6729 16.7274" fill="white"/>
<path d="M20.8822 4.18867C19.9799 4.17132 19.0831 4.32834 18.2436 4.65064C17.4041 4.97295 16.6385 5.45416 15.9912 6.06643V4.67919H11.4897V26.419H16.1643V19.318C16.7817 19.9236 17.5179 20.402 18.3291 20.7246C19.1403 21.0472 20.0099 21.2075 20.8861 21.1958C25.0649 21.1958 28.8698 17.7928 28.8698 12.6922C28.8698 7.59163 25.0255 4.18867 20.8822 4.18867ZM20.1345 16.7275C19.5925 16.7373 19.0541 16.6392 18.5524 16.4392C18.0507 16.2392 17.5962 15.9415 17.2167 15.5645C16.8373 15.1874 16.5409 14.7388 16.3457 14.2462C16.1505 13.7537 16.0607 13.2275 16.0817 12.6999C16.0817 11.6531 16.5087 10.6491 17.2687 9.90886C18.0288 9.16863 19.0597 8.75277 20.1345 8.75277C21.2094 8.75277 22.2403 9.16863 23.0003 9.90886C23.7604 10.6491 24.1874 11.6531 24.1874 12.6999C24.2095 13.2278 24.1205 13.7544 23.9257 14.2475C23.731 14.7406 23.4346 15.1896 23.0549 15.5669C22.6752 15.9442 22.2203 16.2419 21.718 16.4415C21.2158 16.641 20.6769 16.7384 20.1345 16.7275" fill="white"/>
</g>
<defs>
<clipPath id="clip0_4_3082">
<rect width="120" height="28" fill="white"/>
</clipPath>
</defs>
</svg>
