<svg width="88" height="34" viewBox="0 0 88 34" fill="none" xmlns="http://www.w3.org/2000/svg">
<g clip-path="url(#clip0_4_3029)">
<path d="M26.2267 1.63296C27.4238 2.70274 27.7796 3.99083 27.2941 5.49721C27.2029 5.76011 27.0895 6.01521 26.955 6.2599C26.707 6.68975 26.4213 7.09802 26.1011 7.48019C25.7788 7.86255 25.4397 8.22864 25.0797 8.57845C24.9788 8.69274 24.8465 8.7769 24.6984 8.82117C24.5502 8.86545 24.3922 8.86803 24.2426 8.82861C24.2026 8.8278 24.1639 8.81479 24.132 8.79143C24.1001 8.76807 24.0765 8.73554 24.0647 8.69845C24.0553 8.66185 24.0566 8.62344 24.0685 8.58753C24.0803 8.55161 24.1022 8.5196 24.1316 8.49507C24.7159 7.94509 25.2321 7.3308 25.6699 6.66463C25.9829 6.22621 26.2152 5.7383 26.3564 5.22265C26.708 3.82609 26.3139 2.67359 25.1739 1.76515C24.6404 1.35576 24.0243 1.05988 23.3656 0.896712C22.7413 0.743022 22.1038 0.645664 21.4611 0.605875C20.8243 0.559072 20.1849 0.559072 19.5481 0.605875C18.5757 0.659245 17.6072 0.766534 16.6473 0.927219C15.6846 1.09264 14.7274 1.28856 13.7758 1.51499C12.5355 1.81129 11.314 2.17732 10.1174 2.61122C8.92111 3.04443 7.75801 3.5596 6.63682 4.15286C5.55278 4.72039 4.53884 5.40614 3.61463 6.19685C2.79187 6.90119 2.10262 7.74031 1.57821 8.67607C0.895914 9.93026 0.953819 11.1539 1.75192 12.3471C2.25797 13.0612 2.86695 13.7009 3.56022 14.2467C4.64198 15.1183 5.79166 15.9071 6.9989 16.6059C8.01886 17.1998 9.03463 17.7842 10.0462 18.3591C10.7229 18.736 11.3934 19.117 12.0575 19.5021C12.5368 19.7726 13.0035 20.0512 13.4619 20.34C13.9202 20.6288 14.366 20.938 14.7993 21.2715C14.9142 21.373 15.0559 21.4413 15.2086 21.469C15.3612 21.4966 15.5188 21.4825 15.6636 21.4281C16.7385 21.1205 17.8375 20.8988 18.9495 20.7651C18.9869 20.7651 19.0241 20.761 19.0605 20.7529C19.3062 20.7102 19.5577 20.7102 19.8035 20.7529C19.8623 20.7687 19.9166 20.7972 19.9625 20.8363C19.9859 20.86 20.0039 20.8881 20.0154 20.9189C20.0269 20.9497 20.0317 20.9825 20.0295 21.0153C20.0319 21.0485 20.0266 21.0819 20.0139 21.1129C20.0012 21.1439 19.9815 21.1717 19.9562 21.1942C19.9106 21.2334 19.8518 21.2551 19.7909 21.2553C19.4101 21.2625 19.0306 21.3013 18.6565 21.3712C18.2882 21.4403 17.924 21.5183 17.564 21.6051C17.2731 21.6783 16.9906 21.7393 16.7122 21.7901L16.6075 21.8146C16.4722 21.8344 16.3391 21.8664 16.2099 21.9101C16.0821 21.9539 15.9652 22.0232 15.8667 22.1135C15.9279 22.2772 16.0283 22.4243 16.1597 22.5427C16.2141 22.6077 16.2664 22.6728 16.3187 22.746C16.5402 23.0296 16.7376 23.3303 16.9089 23.645C17.0741 23.9564 17.1972 24.2873 17.2752 24.6294C17.4719 25.5297 17.1699 26.2246 16.369 26.714C16.1019 26.8683 15.8218 27.0003 15.5318 27.1086C14.4994 27.4706 13.4024 27.6263 12.3066 27.5662C11.8836 27.5415 11.47 27.4343 11.0906 27.251C10.8549 27.1417 10.644 26.988 10.47 26.7988C10.2961 26.6095 10.1627 26.3885 10.0776 26.1486C9.99742 25.9079 9.96813 25.6539 9.99151 25.4019C10.0149 25.1499 10.0904 24.9051 10.2136 24.6822C10.3816 24.3628 10.6111 24.0776 10.8897 23.8423C11.2395 23.5401 11.6155 23.2679 12.0136 23.0287C12.414 22.7888 12.8263 22.5677 13.2505 22.3657C13.4305 22.2776 13.6063 22.1901 13.7779 22.1034L14.0479 21.9712C14.0599 21.8944 14.042 21.8161 13.9977 21.7515C13.9579 21.701 13.9106 21.6564 13.8574 21.6193C13.8352 21.6109 13.8157 21.5968 13.8009 21.5786C13.0747 21.0387 12.3134 20.5448 11.5217 20.1C10.5604 19.5496 9.59344 19.0038 8.62092 18.4628C8.2149 18.235 7.81026 18.0025 7.40702 17.7652C6.00625 16.9793 4.65464 16.1134 3.35929 15.1721C2.56345 14.597 1.83556 13.9381 1.18892 13.2074C0.876067 12.8316 0.608523 12.4221 0.391518 11.9871C0.165721 11.5414 0.0372584 11.0551 0.0142067 10.5588C-0.00884497 10.0625 0.0740133 9.56687 0.25757 9.10318C0.441006 8.60201 0.694535 8.12775 1.01103 7.69374C1.32829 7.26238 1.67808 6.85449 2.05749 6.47345C2.88567 5.63186 3.82276 4.8983 4.84528 4.29116C6.5366 3.27833 8.34298 2.45935 10.2283 1.85057C12.5797 1.08506 15 0.53622 17.4573 0.211315C18.3103 0.0989429 19.169 0.0310516 20.0295 0.0079329C20.8902 -0.0140928 21.7512 0.0403679 22.6017 0.170638C23.1052 0.237945 23.6027 0.342654 24.0898 0.483846C24.5749 0.629629 25.0391 0.834649 25.4711 1.09399C25.7362 1.25541 25.9888 1.43555 26.2267 1.63296ZM14.973 22.6362C14.9126 22.5686 14.8289 22.5247 14.7376 22.5127C14.6463 22.5008 14.5536 22.5215 14.4769 22.5711C14.0018 22.7764 13.5398 23.0093 13.0935 23.2687C12.6466 23.5284 12.2211 23.8214 11.821 24.1453C11.6052 24.3262 11.4226 24.5415 11.281 24.7819C11.1502 24.989 11.0737 25.2242 11.0584 25.4668C11.0431 25.7094 11.0893 25.9519 11.1931 26.173C11.3044 26.389 11.4696 26.5744 11.6736 26.7122C11.8776 26.8501 12.114 26.936 12.361 26.9622C12.4949 26.9784 12.6163 26.9906 12.7231 26.9988H12.8152C13.6298 26.9857 14.4331 26.8113 15.176 26.4862C16.0578 26.1202 16.3787 25.4863 16.1387 24.5846C16.0391 24.2183 15.8846 23.8681 15.6804 23.5453C15.4752 23.2209 15.2383 22.9165 14.973 22.6362Z" fill="white"/>
<path d="M23.3257 21.1723C23.4032 21.0177 23.4576 20.9445 23.4848 20.9567C23.512 20.9689 23.5204 21.032 23.5057 21.1438C23.4891 21.2734 23.4639 21.4018 23.4304 21.5282C23.361 21.789 23.2685 22.0435 23.1541 22.2889C23.0316 22.5612 22.886 22.8231 22.7188 23.0719C22.4953 23.3862 22.1927 23.6397 21.8398 23.8081C21.5502 23.9659 21.2093 24.0096 20.8875 23.9302C20.6049 23.8468 20.4396 23.5864 20.3956 23.1492C20.3896 22.7464 20.4225 22.344 20.494 21.9472C20.517 21.7641 20.5442 21.5852 20.5735 21.4103C20.5773 21.3569 20.5592 21.3043 20.5233 21.2638C20.507 21.2476 20.4868 21.2355 20.4645 21.2288C20.4422 21.222 20.4186 21.2208 20.3956 21.2252H20.2722C20.0445 21.2617 19.8118 21.2576 19.5857 21.213C19.4739 21.1955 19.3693 21.1483 19.2836 21.0764C19.1979 21.0046 19.1344 20.9111 19.1001 20.8062C19.0564 20.5609 19.0607 20.3097 19.1127 20.0659C19.1266 19.8761 19.2168 19.6993 19.3638 19.5737C19.4319 19.5196 19.5107 19.4798 19.5953 19.4567C19.68 19.4336 19.7686 19.4277 19.8557 19.4395C20.1173 19.4639 20.2429 19.5615 20.2345 19.7324C20.2216 19.9221 20.1719 20.1077 20.088 20.2795C20.0178 20.4053 19.9744 20.5437 19.9603 20.6862C19.9603 20.796 20.0524 20.8347 20.247 20.8021L20.3956 20.7594C20.4778 20.7304 20.5617 20.7059 20.6468 20.6862C20.7681 20.6629 20.8924 20.658 21.0152 20.672C21.0934 20.6693 21.1705 20.6911 21.235 20.7344C21.2995 20.7776 21.3479 20.8399 21.373 20.912C21.4359 21.0974 21.4622 21.2927 21.4505 21.4875C21.4415 21.7232 21.4184 21.9582 21.3814 22.1912C21.3409 22.4443 21.3185 22.6999 21.3144 22.956C21.3144 23.1593 21.3772 23.2936 21.5049 23.3282C21.6723 23.3729 21.9228 23.2251 22.2563 22.8848C22.7008 22.3705 23.0615 21.7929 23.3257 21.1723Z" fill="white"/>
<path d="M29.506 21.0213C29.596 21.0213 29.5814 21.1494 29.46 21.3833C29.2973 21.6737 29.0976 21.9429 28.8656 22.1847C28.5937 22.4826 28.2827 22.7445 27.9405 22.9636C27.6436 23.1706 27.2843 23.2758 26.9192 23.2626C26.7111 23.257 26.5121 23.1791 26.3582 23.0429C26.2435 22.9283 26.1581 22.7889 26.1092 22.6362C26.0694 22.5086 26.0407 22.3779 26.0234 22.2457C26.0184 22.1852 26.0079 22.1253 25.992 22.0667C25.9815 22.0281 25.9564 22.026 25.9187 22.0667C25.8172 22.3343 25.6306 22.5635 25.386 22.7211C25.1414 22.8788 24.8515 22.9566 24.5583 22.9433C24.3834 22.9448 24.211 22.9027 24.0575 22.8212C23.904 22.7397 23.7746 22.6214 23.6814 22.4775C23.4459 22.1289 23.3022 21.7294 23.2628 21.3142C23.2049 20.8355 23.252 20.3503 23.4009 19.8905C23.417 19.8149 23.4533 19.7448 23.5062 19.6873C23.5592 19.6298 23.6268 19.587 23.7023 19.5631C23.7593 19.541 23.8203 19.5307 23.8815 19.5328C23.9428 19.5349 24.0029 19.5493 24.0581 19.5753C24.1104 19.591 24.1568 19.6214 24.1914 19.6627C24.2261 19.7039 24.2474 19.7542 24.2528 19.8071C24.2536 19.9126 24.2459 20.018 24.2297 20.1224C24.2098 20.1966 24.1951 20.272 24.1858 20.3481C24.1698 20.662 24.1754 20.9766 24.2025 21.2898C24.2181 21.6001 24.3138 21.9015 24.4809 22.1664C24.5044 22.2101 24.5382 22.2478 24.5795 22.2764C24.6208 22.305 24.6685 22.3238 24.7186 22.3311C24.7688 22.3384 24.8201 22.3341 24.8682 22.3186C24.9164 22.303 24.9601 22.2767 24.9957 22.2416C25.2131 22.0565 25.383 21.8246 25.4918 21.5643C25.599 21.3303 25.6865 21.0881 25.7534 20.8403C25.8044 20.657 25.8442 20.4709 25.8727 20.283C25.885 20.2481 25.8935 20.2119 25.8978 20.1752C25.925 20.0736 25.9543 19.9719 25.9836 19.8722C26.0276 19.7258 26.0736 19.5814 26.1176 19.4431C26.1305 19.3829 26.1559 19.3259 26.1923 19.2755C26.2286 19.2251 26.2751 19.1825 26.329 19.1502C26.3828 19.1178 26.4429 19.0965 26.5055 19.0874C26.5681 19.0783 26.6319 19.0817 26.6931 19.0973C26.7722 19.0934 26.8496 19.1201 26.9084 19.1716C26.9673 19.2231 27.0027 19.2951 27.0071 19.3719C27.0238 19.5979 27.028 19.8247 27.0196 20.0512C27.0196 20.2891 26.9987 20.521 26.9819 20.7488C26.961 21.0783 26.9464 21.4057 26.9401 21.7311C26.9401 22.203 27.028 22.4796 27.231 22.5568C27.434 22.6341 27.681 22.5833 27.9719 22.4043C28.2866 22.2041 28.5688 21.9594 28.8091 21.6782L28.9012 21.5704C28.9535 21.5033 29.0205 21.4281 29.0979 21.3447C29.1678 21.2676 29.2425 21.195 29.3218 21.1271C29.3728 21.0769 29.4362 21.0405 29.506 21.0213Z" fill="white"/>
<path d="M56.0927 7.10361C56.674 7.55259 57.1698 8.09707 57.5577 8.71236C57.9402 9.33734 58.196 10.0277 58.3112 10.7462C58.3762 11.1231 58.3902 11.5067 58.3531 11.8872C58.3143 12.2642 58.2443 12.6376 58.1438 13.0037C57.9905 13.6082 57.7651 14.1932 57.4719 14.7467C57.1782 15.2988 56.8343 15.8242 56.4443 16.3168C55.9294 16.9554 55.3425 17.5359 54.6946 18.0476C54.0458 18.5573 53.358 19.0183 52.6373 19.4265C51.1032 20.2999 49.4793 21.0149 47.7921 21.56C47.6791 21.6047 47.5577 21.6475 47.4321 21.6902C47.3057 21.7246 47.183 21.7709 47.0659 21.8285C47.0315 21.847 47.0017 21.8726 46.9785 21.9036C46.9554 21.9345 46.9395 21.9699 46.9319 22.0074C46.9099 22.1289 46.9008 22.2523 46.9047 22.3756C46.9047 24.446 46.9005 26.5117 46.8922 28.5726V29.4126C46.8922 29.5611 46.8922 29.7055 46.8922 29.8519C46.8877 29.9962 46.8631 30.1392 46.8189 30.277C46.8019 30.3779 46.7464 30.469 46.6633 30.5319C46.5803 30.5949 46.476 30.6251 46.371 30.6166C46.2792 30.6172 46.1897 30.5885 46.1163 30.5349C46.043 30.4812 45.9898 30.4056 45.965 30.3197C45.8834 30.002 45.8489 29.6746 45.8624 29.3475V22.9105C45.8846 22.6798 45.8611 22.4472 45.7934 22.2251C45.679 22.2353 45.5661 22.2572 45.4564 22.2901C45.3037 22.3343 45.1429 22.3447 44.9855 22.3207C44.9317 22.3141 44.8794 22.2989 44.8306 22.2759C44.8074 22.2627 44.788 22.2441 44.7741 22.2217C44.7602 22.1993 44.7523 22.1739 44.7511 22.1478C44.7454 22.0963 44.759 22.0445 44.7893 22.0019C44.8197 21.9593 44.8648 21.9288 44.9164 21.9159C45.131 21.8282 45.3504 21.7522 45.5736 21.6881C45.6642 21.6656 45.7433 21.6121 45.7964 21.5373C45.8495 21.4625 45.8729 21.3716 45.8624 21.2814V17.5249C45.8708 15.1792 45.8743 12.8315 45.8729 10.4818V10.3923C45.8729 10.2174 45.8771 10.0466 45.8855 9.87978C45.8835 9.81537 45.8959 9.75131 45.9217 9.69195C45.9474 9.63258 45.9861 9.5793 46.0349 9.5357C46.0837 9.49211 46.1416 9.45923 46.2047 9.43929C46.2677 9.41935 46.3345 9.41282 46.4003 9.42013C46.4658 9.41611 46.5313 9.42546 46.5928 9.44758C46.6543 9.4697 46.7103 9.50411 46.7572 9.54857C46.8042 9.59304 46.841 9.64657 46.8653 9.70572C46.8896 9.76487 46.9009 9.82832 46.8984 9.89198C46.9068 10.0403 46.9068 10.189 46.8984 10.3374V12.6864C46.9068 15.2287 46.911 17.771 46.911 20.3133V20.5167C46.8955 20.7216 46.9139 20.9275 46.9654 21.1268C46.9849 21.1465 47.0089 21.1614 47.0355 21.1703C47.062 21.1791 47.0904 21.1817 47.1182 21.1776C47.1665 21.1681 47.2141 21.1552 47.2605 21.139C48.5087 20.6864 49.7198 20.1425 50.8834 19.5119C52.0434 18.8803 53.1309 18.1303 54.1274 17.2747C55.4187 16.1862 56.3755 14.7722 56.8922 13.1888C57.1626 12.3875 57.2434 11.5373 57.1287 10.7014C57.0168 9.96115 56.7303 9.25603 56.2915 8.64118C55.8482 8.02722 55.2876 7.50178 54.6402 7.09344C53.4013 6.32876 51.9932 5.86102 50.5318 5.72875C48.868 5.55663 47.1876 5.61346 45.5401 5.89756C43.812 6.18288 42.1217 6.65354 40.5004 7.30089C38.9829 7.89383 37.5523 8.67815 36.2454 9.63368C35.0273 10.5462 34.1455 11.5319 33.6 12.5909C33.4762 12.796 33.3851 13.0182 33.33 13.2498C33.2778 13.4869 33.2821 13.7325 33.3425 13.9678C33.3645 14.0208 33.3704 14.0788 33.3596 14.135C33.3489 14.1911 33.3219 14.2432 33.2818 14.285C33.2365 14.3217 33.1831 14.3476 33.1257 14.3607C33.0683 14.3738 33.0085 14.3736 32.9512 14.3603C32.8203 14.3458 32.6959 14.2972 32.5912 14.2194C32.4865 14.1417 32.4055 14.0379 32.3568 13.9189C32.2672 13.7054 32.2496 13.4697 32.3065 13.2457C32.402 12.7987 32.59 12.3753 32.8591 12.0011C33.828 10.6782 35.0642 9.56127 36.4924 8.71846C38.1067 7.73165 39.8393 6.9407 41.6515 6.3633C43.4884 5.76326 45.3888 5.36552 47.317 5.17758C49.0317 4.99079 50.766 5.06974 52.4552 5.41147C53.1176 5.55409 53.7619 5.76688 54.3765 6.04603C54.992 6.32708 55.5686 6.68241 56.0927 7.10361Z" fill="white"/>
<path d="M58.9682 21.1726C59.0457 21.018 59.1001 20.9448 59.1273 20.957C59.1545 20.9692 59.1649 21.0322 59.1503 21.1441C59.1329 21.2737 59.107 21.4021 59.0729 21.5285C59.0053 21.7898 58.9129 22.0445 58.7966 22.2891C58.6749 22.5618 58.5293 22.8238 58.3613 23.0722C58.1378 23.3865 57.8351 23.64 57.4822 23.8084C57.1933 23.966 56.8531 24.0097 56.532 23.9304C56.253 23.8477 56.0883 23.5874 56.0381 23.1495C56.0331 22.7467 56.066 22.3444 56.1365 21.9475C56.1595 21.7644 56.1867 21.5854 56.216 21.4105C56.2197 21.3572 56.2017 21.3046 56.1658 21.2641C56.1496 21.2477 56.1294 21.2355 56.1071 21.2288C56.0847 21.222 56.061 21.2209 56.0381 21.2255H55.9146C55.6869 21.262 55.4543 21.2579 55.2281 21.2133C54.9491 21.1346 54.7879 20.999 54.7447 20.8065C54.6988 20.5613 54.7031 20.3098 54.7572 20.0662C54.7632 19.972 54.7885 19.88 54.8316 19.7954C54.8748 19.7109 54.9349 19.6356 55.0084 19.574C55.0758 19.5196 55.1543 19.4796 55.2386 19.4565C55.323 19.4334 55.4114 19.4277 55.4981 19.4398C55.7597 19.4642 55.8874 19.5618 55.879 19.7326C55.8653 19.9225 55.8149 20.1081 55.7304 20.2797C55.6602 20.4056 55.6168 20.544 55.6028 20.6865C55.6028 20.7963 55.699 20.835 55.8916 20.8024L56.0381 20.7597C56.1203 20.7306 56.2042 20.7062 56.2893 20.6865C56.4105 20.6632 56.5348 20.6584 56.6576 20.6723C56.736 20.6692 56.8132 20.691 56.8778 20.7342C56.9423 20.7775 56.9906 20.84 57.0155 20.9122C57.0804 21.0972 57.1067 21.2929 57.0929 21.4878C57.0836 21.7234 57.0613 21.9583 57.026 22.1915C56.9838 22.4445 56.9607 22.7 56.9569 22.9562C56.9569 23.1596 57.0218 23.2939 57.1474 23.3284C57.3148 23.3732 57.5652 23.2254 57.8987 22.8851C58.344 22.3713 58.7048 21.7936 58.9682 21.1726Z" fill="white"/>
<path d="M63.5287 20.7655C63.5894 20.7065 63.6228 20.7797 63.627 20.9831C63.6312 21.1865 63.4408 21.4753 63.0536 21.8414C62.9031 22.006 62.7184 22.1377 62.5117 22.2278C62.3049 22.3179 62.0809 22.3644 61.8543 22.3641C61.777 22.3544 61.6984 22.3614 61.6241 22.3844C61.5528 22.4142 61.4954 22.4685 61.4629 22.5369C61.4182 22.6105 61.3648 22.6787 61.3039 22.7403L61.2913 22.7525C61.0527 23.0064 60.7427 23.1868 60.3997 23.2711C60.0759 23.3556 59.7319 23.3283 59.4265 23.1939C59.2666 23.1185 59.1249 23.011 59.0109 22.8785C58.8969 22.746 58.8131 22.5914 58.7651 22.4251C58.6673 22.0938 58.6587 21.7436 58.74 21.4082C58.8084 21.1134 58.922 20.8302 59.077 20.5682C59.2335 20.2512 59.4902 19.9911 59.8095 19.8259C60.1286 19.6764 60.4768 19.5946 60.8309 19.5859C61.396 19.5574 61.7518 19.815 61.8983 20.3587C61.9882 20.6687 62.011 20.9935 61.9652 21.3126C61.9527 21.3838 61.938 21.459 61.9234 21.5383C61.9087 21.6177 61.892 21.6421 61.8794 21.6949C61.8627 21.8698 61.9401 21.9492 62.1117 21.9329C62.5806 21.8434 63.0529 21.4543 63.5287 20.7655ZM60.18 22.7993C60.3235 22.7356 60.4517 22.6432 60.5563 22.5283C60.6608 22.4134 60.7394 22.2785 60.7869 22.1322C60.3084 21.8386 59.9627 21.379 59.82 20.8468C59.6605 21.1295 59.5663 21.4425 59.5437 21.7641C59.5026 22.057 59.5393 22.3553 59.6505 22.6305C59.6669 22.6809 59.6954 22.7268 59.7337 22.7645C59.772 22.8021 59.819 22.8303 59.8707 22.8468C59.9224 22.8632 59.9774 22.8675 60.0312 22.8593C60.085 22.851 60.136 22.8305 60.18 22.7993ZM61.0171 21.5139C61.0979 21.3919 61.1454 21.2519 61.1553 21.1072C61.17 20.9448 61.1616 20.7812 61.1302 20.6211C61.1092 20.489 61.0661 20.3612 61.0025 20.2428C60.946 20.1513 60.8874 20.1228 60.8267 20.1594C60.7697 20.2119 60.724 20.2749 60.6924 20.3447C60.6608 20.4146 60.6438 20.4899 60.6425 20.5662C60.6301 20.7489 60.6587 20.9321 60.7262 21.1031C60.7824 21.2612 60.8832 21.4008 61.0171 21.5058V21.5139Z" fill="white"/>
<path d="M68.0308 21.0461C68.0936 21.0745 68.1145 21.1132 68.0999 21.1661C68.083 21.2173 68.051 21.2625 68.0078 21.2962C67.8718 21.4122 67.742 21.5199 67.6143 21.6237C67.165 21.9938 66.7269 22.3613 66.3 22.726C65.873 23.0907 65.4377 23.4921 64.994 23.93C64.7697 24.1379 64.5599 24.3601 64.3661 24.5951C64.2431 24.7517 64.1619 24.9355 64.1296 25.13C64.0908 25.4234 64.0705 25.7189 64.0689 26.0147C64.031 27.6421 63.8609 29.264 63.5603 30.8654C63.4581 31.4104 63.2931 31.9425 63.0685 32.4517C62.9557 32.7407 62.7825 33.0039 62.5599 33.2246C62.4558 33.3318 62.3303 33.4173 62.191 33.4757C62.0517 33.5341 61.9016 33.5642 61.7499 33.5642C61.5715 33.5861 61.3905 33.5539 61.2317 33.4719C61.0728 33.39 60.9439 33.2624 60.8625 33.1066C60.694 32.8019 60.5915 32.4669 60.5611 32.1223C60.5084 31.5513 60.5196 30.9764 60.5946 30.4077C60.6703 29.8356 60.7906 29.27 60.9546 28.7156C61.3249 27.4507 61.9669 26.2765 62.8383 25.2703C63.1071 24.9545 63.2504 24.5554 63.2422 24.1456C63.2799 23.0962 63.321 22.0515 63.3657 21.0115C63.3824 20.6759 63.395 20.3444 63.4013 20.0149C63.4138 19.8726 63.4285 19.7363 63.4452 19.6082C63.4892 19.4332 63.6252 19.3519 63.8491 19.3641C63.9248 19.3538 64.0018 19.3703 64.066 19.4107C64.1302 19.451 64.1773 19.5124 64.1987 19.5838C64.2526 19.8176 64.2827 20.056 64.2887 20.2956C64.2887 20.5376 64.2887 20.7796 64.2677 21.0257C64.2468 21.2718 64.2468 21.4589 64.2301 21.6705C64.1924 22.2033 64.1756 22.7891 64.1756 23.4277C64.177 23.4559 64.1889 23.4826 64.2091 23.5029C64.2285 23.5263 64.2537 23.5445 64.2824 23.5558C64.2991 23.5602 64.3167 23.5601 64.3333 23.5554C64.3499 23.5508 64.3649 23.5417 64.3766 23.5294L64.567 23.3748C64.6738 23.2873 64.7763 23.1958 64.8851 23.1002C65.0651 22.9416 65.3763 22.6962 65.8186 22.364C66.2609 22.0318 66.699 21.7281 67.133 21.4528C67.5683 21.1735 67.8676 21.0379 68.0308 21.0461ZM62.5557 31.325C62.7644 30.4042 62.9133 29.4715 63.0015 28.5326C63.0992 27.517 63.1689 26.5679 63.2108 25.6852C62.8592 26.0513 62.5829 26.4793 62.3966 26.9462C62.1537 27.5151 61.9605 28.103 61.819 28.7034C61.6662 29.3339 61.5553 29.9237 61.4799 30.4728C61.417 30.8988 61.3807 31.328 61.3711 31.7582C61.3837 32.4131 61.4611 32.786 61.6034 32.8768C61.7457 32.9683 61.9069 32.8646 62.0869 32.5616C62.3039 32.1736 62.4618 31.757 62.5557 31.325ZM64.0647 18.1214C64.0012 18.1335 63.9353 18.1254 63.8769 18.0983C63.8185 18.0712 63.7706 18.0266 63.7403 17.9709C63.7088 17.9219 63.697 17.8633 63.707 17.8063C63.717 17.7493 63.7483 17.6979 63.7947 17.6618C63.9046 17.5745 64.0402 17.5232 64.1819 17.5154C64.3231 17.5046 64.4637 17.542 64.5796 17.6211C64.6046 17.6364 64.6237 17.6593 64.634 17.6862C64.6346 17.7044 64.6389 17.7224 64.6466 17.7391C64.642 17.744 64.6385 17.7498 64.6364 17.7561C64.6342 17.7624 64.6334 17.7691 64.634 17.7757C64.6214 17.8021 64.6089 17.8306 64.5921 17.8591C64.4528 18.0031 64.2664 18.0958 64.0647 18.1214Z" fill="white"/>
<path d="M73.4701 21.1416C73.5538 21.0933 73.6421 21.0531 73.7338 21.0216C73.8203 20.9959 73.8769 20.9959 73.9034 21.0216C73.9285 21.0542 73.8929 21.1254 73.7945 21.2372C73.4705 21.5944 73.1005 21.9095 72.6937 22.1748C72.2794 22.4532 71.8394 22.6935 71.3793 22.8928C71.021 23.05 70.6482 23.174 70.2659 23.2629C69.8875 23.3542 69.4946 23.3742 69.1085 23.3219C68.7154 23.2665 68.3497 23.0938 68.062 22.8277C67.8345 22.6357 67.6606 22.3908 67.5567 22.1159C67.4527 21.841 67.4221 21.545 67.4676 21.2555C67.524 20.787 67.7313 20.3478 68.0599 20.0007C68.3889 19.6542 68.8166 19.4106 69.2885 19.301C69.6956 19.2137 70.1163 19.2033 70.5275 19.2705C70.7105 19.2967 70.8858 19.3598 71.0423 19.4556C71.1065 19.4984 71.1607 19.5539 71.2014 19.6183C71.2422 19.6828 71.2685 19.7548 71.2788 19.8298C71.2825 19.9055 71.2692 19.981 71.2399 20.0513C71.2107 20.1215 71.1661 20.1847 71.1093 20.2366C70.8563 20.4589 70.5393 20.6009 70.201 20.6434C69.8182 20.707 69.4316 20.7464 69.0436 20.7613C68.9015 20.7471 68.7593 20.7881 68.648 20.8752C68.5599 20.9855 68.5133 21.122 68.5162 21.2616C68.4784 21.489 68.5039 21.722 68.5901 21.9366C68.6762 22.1512 68.8198 22.3394 69.0059 22.4819C69.2557 22.6714 69.5725 22.757 69.8871 22.7199C70.2654 22.6848 70.6359 22.5935 70.9858 22.4494C71.3781 22.2956 71.7592 22.1162 72.1265 21.9125C72.499 21.7091 72.8339 21.5057 73.1332 21.3328C73.2587 21.2596 73.3655 21.1925 73.4701 21.1416ZM69.2089 20.08C69.2089 20.08 69.2089 20.0922 69.1901 20.0922L69.1252 20.1491L69.052 20.2142C69.029 20.2366 69.0185 20.2508 69.0185 20.259C69.0185 20.2671 69.1001 20.2956 69.2403 20.2813C69.3943 20.2646 69.5473 20.2401 69.6987 20.2081C69.844 20.1817 69.9849 20.1359 70.1173 20.0719C70.2303 20.0149 70.2638 19.9458 70.2177 19.8685C70.1966 19.8433 70.1711 19.822 70.1424 19.8054C70.1106 19.7872 70.076 19.7741 70.0398 19.7668C69.8852 19.7647 69.7321 19.7967 69.592 19.8603C69.4575 19.9218 69.3293 19.9954 69.2089 20.08Z" fill="white"/>
<path d="M79.184 21.1113C79.3556 21.0096 79.4707 20.9791 79.5251 21.0218C79.5795 21.0645 79.544 21.1723 79.4184 21.3391C79.0179 21.7961 78.557 22.1996 78.0475 22.539C77.5509 22.8868 77.0016 23.1571 76.4192 23.3403C76.0616 23.4657 75.6839 23.5284 75.3037 23.5254C75.0196 23.5321 74.7365 23.4915 74.4665 23.4054C74.1834 23.3325 73.9307 23.1759 73.7432 22.9573C73.5557 22.7387 73.4428 22.4688 73.42 22.1851C73.3772 21.8449 73.4006 21.5 73.4891 21.1682C73.5883 20.8286 73.765 20.5151 74.0061 20.251C74.2435 19.9897 74.5405 19.786 74.8734 19.656C75.2062 19.5261 75.5657 19.4735 75.9232 19.5025C76.243 19.5154 76.5493 19.6313 76.7939 19.832C76.8292 19.8674 76.8488 19.9149 76.8483 19.9642C76.8477 20.017 76.8378 20.0692 76.819 20.1188C76.7645 20.2774 76.6892 20.3526 76.5908 20.3425C76.4682 20.3243 76.3498 20.285 76.2413 20.2266C76.1367 20.1713 76.0283 20.123 75.9169 20.0822C75.8015 20.0394 75.6759 20.0295 75.5548 20.0537C75.377 20.0813 75.2071 20.1447 75.0561 20.24C74.905 20.3353 74.7762 20.4603 74.6779 20.6069C74.4856 20.8689 74.3529 21.1677 74.2886 21.4835C74.2182 21.7722 74.2453 22.0753 74.366 22.3478C74.4324 22.4754 74.5321 22.5837 74.6552 22.6619C74.7782 22.7401 74.9204 22.7854 75.0672 22.7932C75.4401 22.8254 75.8158 22.7882 76.1743 22.6834C76.6005 22.5694 77.0152 22.4183 77.4134 22.2319C77.7918 22.0563 78.1594 21.8594 78.5142 21.6421C78.7648 21.5005 78.9908 21.3213 79.184 21.1113Z" fill="white"/>
<path d="M83.6356 21.1537C83.8617 20.9503 83.958 20.8893 83.9286 20.995C83.8344 21.2025 83.7088 21.3951 83.5561 21.5665C83.306 21.8813 83.0362 22.1808 82.7482 22.4635C82.4368 22.7762 82.0932 23.0569 81.7227 23.3014C81.4228 23.5157 81.0695 23.6484 80.6993 23.6858C80.5249 23.6939 80.3506 23.6676 80.1869 23.6086C80.0233 23.5495 79.8736 23.4588 79.747 23.3421C79.4938 23.0918 79.3164 22.7787 79.2342 22.437C79.1296 22.0386 79.0859 21.6275 79.1044 21.2167C79.1254 20.7286 79.1442 20.2398 79.161 19.7503C79.161 19.5042 79.1777 19.2643 79.184 19.0304C79.2049 18.6358 79.2196 18.2426 79.2279 17.8507C79.2393 17.7435 79.2182 17.6353 79.1672 17.5396C79.1389 17.4968 79.0998 17.4619 79.0537 17.438C79.0075 17.4141 78.9558 17.4022 78.9035 17.4033C78.764 17.3952 78.584 17.3911 78.3635 17.3911H77.878C77.7379 17.3901 77.6034 17.3378 77.5013 17.2447C77.4385 17.1674 77.4887 17.0901 77.652 17.0108C77.7857 16.9621 77.9277 16.938 78.0705 16.9396C78.2317 16.9396 78.3908 16.9396 78.5456 16.9396C78.6433 16.9477 78.7291 16.9518 78.8031 16.9518C79.0437 16.9518 79.1903 16.9152 79.2447 16.842C79.3132 16.706 79.347 16.556 79.343 16.4047C79.3598 16.1749 79.3702 15.941 79.3786 15.7071C79.3786 15.5851 79.3975 15.461 79.41 15.3369C79.4077 15.1618 79.4586 14.9898 79.5565 14.8427C79.5989 14.7786 79.6607 14.7287 79.7334 14.6999C79.806 14.6712 79.8861 14.6649 79.9625 14.6821C80.0265 14.694 80.0847 14.7263 80.1278 14.7737C80.171 14.8212 80.1968 14.8812 80.2011 14.9444C80.2137 15.1742 80.22 15.4081 80.22 15.642C80.2283 15.7727 80.2283 15.9038 80.22 16.0345C80.22 16.1749 80.22 16.3193 80.2325 16.4698C80.2325 16.6732 80.2472 16.8074 80.3058 16.8603C80.4331 16.9292 80.5797 16.957 80.7244 16.9396H81.8148C81.978 16.9396 82.4664 16.9288 83.2798 16.9071C84.0877 16.8867 84.5251 16.9498 84.5879 17.0982C84.6507 17.2467 84.14 17.3342 83.0517 17.3586C82.3945 17.3925 81.8859 17.4101 81.526 17.4114C81.2832 17.4114 81.0676 17.3992 80.8751 17.3992C80.5528 17.3992 80.3539 17.4542 80.2765 17.564C80.1828 17.7702 80.1481 17.9971 80.176 18.2209C80.176 18.5036 80.153 18.8453 80.1342 19.2378C80.0797 20.0622 80.0532 20.9008 80.0546 21.7536C80.0728 22.3407 80.1809 22.7217 80.379 22.8967C80.4831 22.9836 80.611 23.0391 80.7471 23.0564C80.8831 23.0738 81.0214 23.0522 81.1451 22.9943C81.5157 22.8545 81.8606 22.6574 82.1664 22.4106C82.5334 22.1313 82.8961 21.8303 83.2547 21.5076C83.3375 21.4043 83.4323 21.3108 83.5373 21.2289L83.6356 21.1537Z" fill="white"/>
<path d="M87.2794 20.7652C87.2794 20.8567 87.0701 21.0194 86.683 21.2513C86.2958 21.4832 85.9944 21.6581 85.8081 21.776C85.6218 21.894 85.5256 21.9652 85.5256 21.9936C85.5773 22.1253 85.6159 22.2615 85.6407 22.4004C85.6833 22.601 85.6988 22.8061 85.6867 23.0106C85.6825 23.2218 85.6092 23.4262 85.4774 23.5943C85.393 23.688 85.2895 23.7638 85.1736 23.817C85.0577 23.8702 84.9317 23.8996 84.8035 23.9034C84.5168 23.9307 84.2277 23.8829 83.9663 23.7651C83.8548 23.7188 83.7553 23.649 83.6749 23.5607C83.5945 23.4724 83.5354 23.3678 83.5017 23.2546C83.4368 23.0329 83.5143 22.7726 83.7319 22.4736C83.879 22.3032 84.0527 22.1563 84.2468 22.0384C84.3159 21.9957 84.387 21.9489 84.4561 21.896C84.2161 21.6425 83.9873 21.3821 83.7696 21.115C83.5835 20.9059 83.4413 20.6634 83.351 20.4012C83.3185 20.285 83.3128 20.1633 83.3346 20.0447C83.3563 19.9262 83.4048 19.8139 83.4766 19.7158C83.5681 19.6004 83.6853 19.5066 83.8194 19.4414C83.9535 19.3763 84.1011 19.3414 84.251 19.3395C84.4203 19.3239 84.5911 19.3335 84.7575 19.368C84.921 19.4044 85.0722 19.4807 85.197 19.5897C85.2237 19.6164 85.2443 19.6483 85.2577 19.6832C85.2689 19.7267 85.2622 19.7727 85.2388 19.8113C85.2208 19.8496 85.191 19.8816 85.1535 19.9027C85.116 19.9238 85.0727 19.9331 85.0296 19.9293C84.9661 19.9291 84.9028 19.9216 84.8412 19.9069L84.6633 19.8297L84.5586 19.7747C84.5162 19.7522 84.4681 19.742 84.4199 19.7453C84.3716 19.7485 84.3254 19.7651 84.2866 19.793C84.2521 19.8263 84.2257 19.8665 84.2091 19.9108C84.1924 19.955 84.186 20.0023 84.1903 20.0493C84.211 20.2849 84.3003 20.5099 84.4477 20.6981C84.611 20.93 84.7721 21.1415 84.9333 21.3367C84.9932 21.4007 85.0485 21.4686 85.0986 21.5401C85.1426 21.5848 85.2619 21.5787 85.4544 21.5198C85.8186 21.3858 86.1719 21.2253 86.5113 21.0398C87.0234 20.7659 87.2794 20.6744 87.2794 20.7652ZM84.5377 23.4478C84.593 23.4461 84.646 23.4263 84.6882 23.3916C84.7303 23.3569 84.7592 23.3093 84.77 23.2566C84.8082 23.1293 84.8216 22.9962 84.8098 22.8641C84.8098 22.7197 84.791 22.614 84.7826 22.5407C84.7764 22.5211 84.7653 22.5032 84.7503 22.4887C84.7354 22.4742 84.717 22.4634 84.6968 22.4574C84.6594 22.4451 84.619 22.4451 84.5817 22.4574C84.4471 22.5598 84.3443 22.6963 84.2845 22.8519C84.2522 22.9174 84.2367 22.9895 84.2393 23.0621C84.2418 23.1347 84.2623 23.2056 84.2991 23.2688C84.3236 23.3123 84.3571 23.3504 84.3975 23.3807C84.4369 23.4153 84.4855 23.4385 84.5377 23.4478Z" fill="white"/>
</g>
<defs>
<clipPath id="clip0_4_3029">
<rect width="87.2773" height="33.5682" fill="white"/>
</clipPath>
</defs>
</svg>
